# xmcd
#
# Track frame offsets: 
#        150
#        9832
#        19229
#        31191
#        44307
#        57099
#        68563
#        79686
#        92646
#        103243
#        114956
#        126449
#        138167
#        150488
#        162326
#        174153
#        186231
#        196868
#        209356
#        222290
#
# Disc length: 3127 seconds
#
# Revision: 0
# Processed by: cddbd v1.5.2PL0 Copyright (c) Steve Scherf et al.
# Submitted via: ExactAudioCopy v1.3
#
DISCID=000c3514
DTITLE=Chet.Atkins - The.Absolutely.Essential
DYEAR=2017
DGENRE=Country
TTITLE0=Elvis Presley - Heartbreak Hotel
TTITLE1=The Everly Brothers - Wake Up Little Susie
TTITLE2=Don Gibson - I Cant Stop Loving You
TTITLE3=Hank Williams - Jambalaya (on the bayou)
TTITLE4=Kitty Wells - Release Me
TTITLE5=Hank Locklin - Send Me The Pillow That You Dream On
TTITLE6=Webb Pierce - There Stands The Glass
TTITLE7=Jim Reeves - Have I Told You Lately That I Love You
TTITLE8=The Everly Brothers - All I Have To Do Is Dream 
TTITLE9=The Louvin Brothers - I Cant Say No
TTITLE10=Don Gibson - Oh Lonesome Me
TTITLE11=Elvis Presley - Money Money
TTITLE12=Hank Williams - Cold Cold Heart
TTITLE13=The Browns - I Heard The Bluebirds Song
TTITLE14=Eddy Arnold - Just Call Me Lonesome
TTITLE15=Kitty Wells - The Lonely Side Of Town
TTITLE16=Webb Pierce - Its Been So Long
TTITLE17=The Louvin Brothers - (Im Changing The Words to) My Love Song
TTITLE17=Of You
TTITLE18=Jim Reeves - Four Walls
TTITLE19=Kitty Wells and Webb Pierce - Oh So Many Years
EXTD=
EXTT0=
EXTT1=
EXTT2=
EXTT3=
EXTT4=
EXTT5=
EXTT6=
EXTT7=
EXTT8=
EXTT9=
EXTT10=
EXTT11=
EXTT12=
EXTT13=
EXTT14=
EXTT15=
EXTT16=
EXTT17=
EXTT18=
EXTT19=
PLAYORDER=
